<svg xmlns="http://www.w3.org/2000/svg" viewBox="0 0 200 200"><rect width="200" height="200" fill="#0c1620" class="bg"/><circle cx="100" cy="100" r="99" fill="#8a6218" class="bg"/><circle cx="100" cy="100" r="95" fill="#c9962e" class="bg"/><circle cx="100" cy="100" r="90" fill="none" stroke="#8a6218" stroke-width="2.5" stroke-dasharray="3 3" class="bg"/><circle cx="100" cy="100" r="87" fill="#2a1a10" class="bg"/><clipPath id="pjc"><circle cx="100" cy="100" r="87"/></clipPath><g clip-path="url(#pjc)" transform="translate(0 7)"><rect x="50" y="52" width="40" height="16" rx="7.2" fill="#3a2616" transform="rotate(-20 70 60)"/><rect x="122" y="63" width="36" height="14" rx="6.3" fill="#3a2616" transform="rotate(30 140 70)"/><rect x="45" y="104" width="30" height="12" rx="5.4" fill="#3a2616" transform="rotate(10 60 110)"/><rect x="135" y="113" width="30" height="14" rx="6.3" fill="#3a2616" transform="rotate(-15 150 120)"/><rect x="78" y="29" width="44" height="14" rx="6.3" fill="#3a2616" transform="rotate(5 100 36)"/><path d="M14 190Q30 150 72 142L100 160L128 142Q170 150 186 190Q150 200 100 200Q50 200 14 190Z" fill="#1e4536"/><rect x="29" y="167" width="30" height="10" rx="4.5" fill="#2f6a50" opacity="0.8" transform="rotate(-30 44 172)"/><rect x="141" y="167" width="30" height="10" rx="4.5" fill="#2f6a50" opacity="0.8" transform="rotate(30 156 172)"/><rect x="51" y="185.5" width="26" height="9" rx="4" fill="#2f6a50" opacity="0.8" transform="rotate(-10 64 190)"/><rect x="123" y="187.5" width="26" height="9" rx="4" fill="#2f6a50" opacity="0.8" transform="rotate(12 136 192)"/><path d="M78 142Q100 134 122 142Q130 160 118 176Q100 186 82 176Q70 160 78 142Z" fill="#f2ead8"/><rect x="79" y="148" width="22" height="8" rx="3.6" fill="#c8bfa8" transform="rotate(-25 90 152)"/><rect x="102" y="164.5" width="20" height="7" rx="3.1" fill="#c8bfa8" transform="rotate(30 112 168)"/><rect x="93" y="157" width="14" height="6" rx="2.7" fill="#c8bfa8" transform="rotate(0 100 160)"/><rect x="77" y="166.5" width="18" height="7" rx="3.1" fill="#c8bfa8" transform="rotate(20 86 170)"/><circle cx="100" cy="158" r="4" fill="#c9962e"/><circle cx="100" cy="158" r="2" fill="#a0303a"/><path d="M84 122H118L120 148Q100 156 82 148Z" fill="#c58a60"/><path d="M66 70Q70 30 102 28Q136 30 138 72Q142 108 128 132Q114 150 92 146Q66 138 62 108Z" fill="#e6b48c"/><rect x="69" y="48" width="30" height="12" rx="5.4" fill="#f6d4b0" transform="rotate(-15 84 54)"/><rect x="67" y="72" width="18" height="24" rx="8.1" fill="#f6d4b0" transform="rotate(10 76 84)"/><rect x="95" y="39.5" width="22" height="9" rx="4" fill="#f6d4b0" opacity="0.8" transform="rotate(5 106 44)"/><rect x="121" y="82" width="14" height="36" rx="6.3" fill="#c58a60" transform="rotate(0 128 100)"/><rect x="106" y="127" width="24" height="10" rx="4.5" fill="#c58a60" transform="rotate(-20 118 132)"/><rect x="129" y="61" width="10" height="22" rx="4.5" fill="#c58a60" opacity="0.9" transform="rotate(10 134 72)"/><rect x="68" y="98" width="20" height="12" rx="5.4" fill="#e0907c" opacity="0.9" transform="rotate(-10 78 104)"/><rect x="110" y="101" width="16" height="10" rx="4.5" fill="#e0907c" opacity="0.8" transform="rotate(10 118 106)"/><rect x="85" y="134" width="30" height="8" rx="3.6" fill="#c58a60" opacity="0.6" transform="rotate(0 100 138)"/><circle cx="64" cy="56" r="15" fill="#5a3a22"/><circle cx="76" cy="38" r="15" fill="#5a3a22"/><circle cx="98" cy="28" r="15" fill="#5a3a22"/><circle cx="120" cy="32" r="14" fill="#5a3a22"/><circle cx="138" cy="48" r="14" fill="#5a3a22"/><circle cx="146" cy="68" r="11" fill="#5a3a22"/><circle cx="56" cy="76" r="11" fill="#5a3a22"/><circle cx="146" cy="90" r="9" fill="#5a3a22"/><rect x="63" y="39" width="14" height="6" rx="2.7" fill="#8a6038" transform="rotate(-40 70 42)"/><rect x="89" y="21" width="14" height="6" rx="2.7" fill="#8a6038" transform="rotate(0 96 24)"/><rect x="114" y="25.5" width="12" height="5" rx="2.2" fill="#8a6038" transform="rotate(20 120 28)"/><rect x="55" y="61.5" width="10" height="5" rx="2.2" fill="#8a6038" transform="rotate(-70 60 64)"/><path d="M74 72Q84 64 96 72" fill="none" stroke="#5a3a22" stroke-width="3.4" stroke-linecap="round"/><path d="M110 72Q120 64 130 74" fill="none" stroke="#5a3a22" stroke-width="3.4" stroke-linecap="round"/><path d="M76 86Q86 80 96 86Q86 92 76 86Z" fill="#3a2214"/><path d="M110 86Q120 80 130 88Q120 92 110 86Z" fill="#3a2214"/><path d="M80 86Q86 90 94 86" fill="none" stroke="#f6d4b0" stroke-width="1.6"/><path d="M114 87Q120 91 128 88" fill="none" stroke="#f6d4b0" stroke-width="1.6"/><rect x="99" y="97" width="10" height="14" rx="4.5" fill="#c58a60" opacity="0.9" transform="rotate(-10 104 104)"/><rect x="95.5" y="107.5" width="9" height="5" rx="2.2" fill="#f6d4b0" opacity="0.9" transform="rotate(0 100 110)"/><path d="M88 116Q100 112 114 116" fill="none" stroke="#4a2c18" stroke-width="2.2" stroke-linecap="round"/><path d="M90 124Q100 130 112 122" fill="none" stroke="#9c4a42" stroke-width="3" stroke-linecap="round"/><path d="M94 120Q100 118 108 120" fill="none" stroke="#b05a50" stroke-width="2" stroke-linecap="round"/><path d="M126 176Q134 152 152 156Q166 162 162 184Q150 196 132 194Q122 188 126 176Z" fill="#e6b48c"/><rect x="128" y="162" width="20" height="8" rx="3.6" fill="#f6d4b0" transform="rotate(-40 138 166)"/><rect x="150" y="171" width="8" height="18" rx="3.6" fill="#c58a60" transform="rotate(15 154 180)"/><rect x="126" y="183" width="16" height="6" rx="2.7" fill="#c58a60" transform="rotate(10 134 186)"/><path d="M140 158L146 172M148 156L154 170M154 158L160 172M160 164L164 176" fill="none" stroke="#c58a60" stroke-width="2"/><path d="M158 178L166 174" fill="none" stroke="#c9962e" stroke-width="4" stroke-linecap="round"/><circle cx="162" cy="176" r="2.8" fill="#a0303a"/></g></svg>